<?xml version="1.0" encoding="UTF-8"?><svg id="Layer_2" xmlns="http://www.w3.org/2000/svg" viewBox="0 0 899.38 338.9"><defs><style>.cls-1{fill:#16a093;}.cls-2{fill:#474647;}</style></defs><g id="Layer_1-2"><path class="cls-1" d="m274.75,67.78h73.66c1.54,0,2.5-1.67,1.73-3L313.31,1c-.36-.62-1.02-1-1.73-1h-73.64c-1.54,0-2.5,1.67-1.73,3l36.81,63.78c.36.62,1.02,1,1.73,1Z"/><path class="cls-1" d="m286.86,84.73h73.64c.71,0,1.37.38,1.73,1l85.73,148.5c.77,1.33,2.69,1.33,3.46,0l85.73-148.5c.36-.62,1.02-1,1.73-1h73.66c1.54,0,2.5,1.67,1.73,3l-144.45,250.16c-.36.62-1.02,1-1.73,1h-36.81c-.71,0-1.37-.38-1.73-1l-144.42-250.16c-.77-1.33.19-3,1.73-3Z"/><path class="cls-1" d="m549.26,64.78L586.07,1c.36-.62,1.02-1,1.73-1h73.64c1.54,0,2.5,1.67,1.73,3l-36.81,63.78c-.36.62-1.02,1-1.73,1h-73.64c-1.54,0-2.5-1.67-1.73-3Z"/><path class="cls-2" d="m213.77,0h-115.09c-.71,0-1.37.38-1.73,1L.27,168.45c-.36.62-.36,1.38,0,2l96.68,167.45c.36.62,1.02,1,1.73,1h193.34c.71,0,1.37-.38,1.73-1l57.54-99.66c.36-.62.36-1.38,0-2l-57.54-99.66c-.36-.62-1.02-1-1.73-1h-115.09c-.71,0-1.37.38-1.73,1l-18.4,31.88c-.36.62-.36,1.38,0,2l18.4,31.88c.36.62,1.02,1,1.73,1h75.95c.71,0,1.38.38,1.73,1l18.4,31.9c.36.62.36,1.38,0,2l-18.4,31.88c-.36.62-1.02,1-1.73,1h-115.09c-.71,0-1.37-.38-1.73-1l-57.52-99.66c-.36-.62-.36-1.38,0-2l57.52-99.66c.36-.62,1.02-1,1.73-1h112.78c1.54,0,2.5-1.67,1.73-3L215.5,1c-.36-.62-1.02-1-1.73-1Z"/><path class="cls-2" d="m647.07,64.78L683.9,1c.36-.62,1.02-1,1.73-1h115.06c.71,0,1.37.38,1.73,1l96.68,167.45c.36.62.36,1.38,0,2l-96.68,167.45c-.36.62-1.02,1-1.73,1h-193.34c-.71,0-1.37-.38-1.73-1l-57.52-99.66c-.36-.62-.36-1.38,0-2l57.52-99.66c.36-.62,1.02-1,1.73-1h115.09c.71,0,1.37.38,1.73,1l18.4,31.88c.36.62.36,1.38,0,2l-18.4,31.88c-.36.62-1.02,1-1.73,1h-75.95c-.71,0-1.38.38-1.73,1l-18.4,31.9c-.36.62-.36,1.38,0,2l18.4,31.88c.36.62,1.02,1,1.73,1h115.09c.71,0,1.37-.38,1.73-1l57.54-99.66c.36-.62.36-1.38,0-2l-57.54-99.66c-.36-.62-1.02-1-1.73-1h-112.78c-1.54,0-2.5-1.67-1.73-3Z"/></g></svg>